<?xml version="1.0" encoding="utf-8"?>
<!-- Generator: Adobe Illustrator 27.2.0, SVG Export Plug-In . SVG Version: 6.00 Build 0)  -->
<svg version="1.1" id="Layer_1" xmlns="http://www.w3.org/2000/svg" xmlns:xlink="http://www.w3.org/1999/xlink" x="0px" y="0px"
	 viewBox="0 0 512 512" style="enable-background:new 0 0 512 512;" xml:space="preserve">
<style type="text/css">
	.st0{fill:#0A3947;}
</style>
<path class="st0" d="M106.8,490.7c-6.1,0-12.2-1.3-17.8-3.9c-7.5-3.3-13.9-8.8-18.3-15.7c-4.4-6.9-6.8-14.9-6.7-23.2V85.3
	c0-17,6.8-33.2,18.8-45.2s28.3-18.7,45.2-18.8h256c17,0,33.2,6.8,45.2,18.8s18.7,28.3,18.8,45.2V448c0,8.2-2.4,16.2-6.8,23.1
	s-10.8,12.4-18.2,15.7c-7.5,3.4-15.7,4.6-23.9,3.4c-8.1-1.2-15.7-4.7-21.9-10.1L256,374L134.8,480.1
	C127,486.9,117.1,490.7,106.8,490.7L106.8,490.7z M256,331.4c10.3,0,20.3,3.7,28.1,10.5L405.3,448l0.1,0.1l-0.1-362.7
	c0-5.7-2.3-11.1-6.3-15.1s-9.4-6.2-15.1-6.3H128c-5.7,0-11.1,2.3-15.1,6.3s-6.2,9.4-6.3,15.1V448l121.2-106.1
	C235.7,335.1,245.7,331.3,256,331.4L256,331.4z"/>
</svg>
