<svg id="saved-icon" xmlns="http://www.w3.org/2000/svg" xmlns:xlink="http://www.w3.org/1999/xlink" x="0px" y="0px"
	 viewBox="0 0 432 432" style="enable-background:new 0 0 432 432; fill:#0A3947" xml:space="preserve">
<g>
	<path class="st0" d="M393.1,14.3c-3.7-5.3-8.7-9.2-15-11.7c-4-1.7-8.2-2.6-12.6-2.6v0H66.4C62,0,57.8,0.9,53.8,2.6
		c-6.3,2.5-11.3,6.4-15,11.7c-3.7,5.3-5.6,11.2-5.6,17.7v368c0,6.5,1.9,12.4,5.6,17.7c3.7,5.3,8.7,9.2,15,11.7
		c4,1.7,8.2,2.6,12.6,2.6c8.9,0,16.8-3.1,23.7-9.4L216,301.5l125.9,121.1c6.7,6.1,14.6,9.1,23.7,9.1c4.8,0,8.9-0.8,12.6-2.3
		c6.3-2.5,11.3-6.4,15-11.7c3.7-5.3,5.6-11.2,5.6-17.7V32C398.7,25.5,396.9,19.6,393.1,14.3z"/>
</g>
</svg>
