<svg id="comments-icon" xmlns="http://www.w3.org/2000/svg" xmlns:xlink="http://www.w3.org/1999/xlink" x="0px" y="0px"
	 viewBox="0 0 511.6 511.6" style="enable-background:new 0 0 24 24; stroke:#0a3947" xml:space="preserve">
<g>
	<path d="M477.4,127.5c-22.8-28.1-53.9-50.2-93.1-66.5s-82-24.4-128.5-24.4c-46.4,0-89.3,8.1-128.5,24.4s-70.2,38.4-93.1,66.5
		C11.4,155.6,0,186.1,0,219.3c0,28.5,8.6,55.3,25.8,80.2c17.2,24.9,40.8,45.9,70.7,62.8c-2.1,7.6-4.6,14.8-7.4,21.7
		c-2.9,6.9-5.4,12.5-7.7,16.8c-2.3,4.4-5.4,9.2-9.3,14.6c-3.9,5.3-6.8,9.1-8.8,11.3c-2,2.2-5.3,5.8-9.9,10.8c-4.6,5-7.5,8.3-8.8,9.9
		c-0.2,0.1-1,0.9-2.3,2.6c-1.3,1.6-2,2.4-2,2.4l-1.7,2.6c-1,1.4-1.4,2.3-1.3,2.7c0.1,0.4-0.1,1.3-0.6,2.9c-0.5,1.5-0.4,2.7,0.1,3.4
		v0.3c0.8,3.2,2.3,5.9,4.6,7.9c2.3,2,4.9,3,7.7,3h1.4c12.4-1.5,23.2-3.6,32.5-6.3C133,456,176.7,433,214.4,399.7
		c14.3,1.5,28.1,2.3,41.4,2.3c46.4,0,89.3-8.1,128.5-24.4c39.2-16.3,70.2-38.4,93.1-66.5c22.8-28.1,34.3-58.7,34.3-91.8
		C511.6,186.2,500.2,155.6,477.4,127.5z M445.2,292.1c-19.9,22.5-46.7,40.3-80.5,53.5c-33.8,13.2-70.1,19.8-108.9,19.8
		c-11.6,0-24-0.8-37.1-2.3l-16.3-1.7l-12.3,10.9c-23.4,20.6-49.6,36.8-78.5,48.8c8.8-15.4,15.4-31.8,20-49.1l7.7-27.4l-24.8-14.3
		c-24.7-14.1-43.9-30.8-57.5-50.1c-13.6-19.3-20.4-39.6-20.4-61c0-26.1,9.9-50.3,29.8-72.8c19.9-22.5,46.7-40.3,80.5-53.5
		c33.8-13.2,70.1-19.8,108.9-19.8c38.8,0,75.1,6.6,108.9,19.8c33.8,13.2,60.6,31.1,80.5,53.5c19.9,22.5,29.8,46.7,29.8,72.8
		S465.1,269.6,445.2,292.1z"/>
</g>
</svg>
